<?xml version="1.0" encoding="UTF-8" standalone="no"?>
<!-- Created with Inkscape (http://www.inkscape.org/) -->

<svg
   xmlns:dc="http://purl.org/dc/elements/1.1/"
   xmlns:cc="http://creativecommons.org/ns#"
   xmlns:rdf="http://www.w3.org/1999/02/22-rdf-syntax-ns#"
   xmlns:svg="http://www.w3.org/2000/svg"
   xmlns="http://www.w3.org/2000/svg"
   xmlns:sodipodi="http://sodipodi.sourceforge.net/DTD/sodipodi-0.dtd"
   xmlns:inkscape="http://www.inkscape.org/namespaces/inkscape"
   width="1092.8416mm"
   height="1092.8416mm"
   viewBox="0 0 3872.2733 3872.2731"
   id="svg4322"
   version="1.1"
   inkscape:version="0.91 r13725"
   sodipodi:docname="fiole.svg"
   inkscape:export-filename="P:\STORAGE\Google Drive\[JDem]\fiole.png"
   inkscape:export-xdpi="9.3000002"
   inkscape:export-ydpi="9.3000002">
  <defs
     id="defs4324" />
  <sodipodi:namedview
     id="base"
     pagecolor="#ffffff"
     bordercolor="#666666"
     borderopacity="1.0"
     inkscape:pageopacity="0"
     inkscape:pageshadow="2"
     inkscape:zoom="0.0625"
     inkscape:cx="1351.5065"
     inkscape:cy="444.88459"
     inkscape:document-units="px"
     inkscape:current-layer="layer1"
     showgrid="false"
     fit-margin-top="100"
     fit-margin-left="100"
     fit-margin-right="100"
     fit-margin-bottom="100"
     inkscape:window-width="1600"
     inkscape:window-height="847"
     inkscape:window-x="1592"
     inkscape:window-y="-8"
     inkscape:window-maximized="1" />
  <metadata
     id="metadata4327">
    <rdf:RDF>
      <cc:Work
         rdf:about="">
        <dc:format>image/svg+xml</dc:format>
        <dc:type
           rdf:resource="http://purl.org/dc/dcmitype/StillImage" />
        <dc:title></dc:title>
      </cc:Work>
    </rdf:RDF>
  </metadata>
  <g
     inkscape:label="Calque 1"
     inkscape:groupmode="layer"
     id="layer1"
     transform="translate(731.33618,2201.0894)">
    <text
       xml:space="preserve"
       style="font-style:normal;font-weight:normal;font-size:13.26279259px;line-height:125%;font-family:sans-serif;letter-spacing:0px;word-spacing:0px;fill:#000000;fill-opacity:1;stroke:none;stroke-width:1px;stroke-linecap:butt;stroke-linejoin:miter;stroke-opacity:1"
       x="2456.6538"
       y="1575.5359"
       id="text4943"
       sodipodi:linespacing="125%"
       inkscape:export-filename="P:\STORAGE\Google Drive\[JDem]\fiole.png"
       inkscape:export-xdpi="9"
       inkscape:export-ydpi="9"><tspan
         sodipodi:role="line"
         id="tspan4945"
         x="2456.6538"
         y="1575.5359" /></text>
    <flowRoot
       xml:space="preserve"
       id="flowRoot4965"
       style="font-style:normal;font-weight:normal;font-size:13.26279259px;line-height:125%;font-family:sans-serif;letter-spacing:0px;word-spacing:0px;fill:#000000;fill-opacity:1;stroke:none;stroke-width:1px;stroke-linecap:butt;stroke-linejoin:miter;stroke-opacity:1"
       inkscape:export-filename="P:\STORAGE\Google Drive\[JDem]\fiole.png"
       inkscape:export-xdpi="9"
       inkscape:export-ydpi="9"><flowRegion
         id="flowRegion4967"><rect
           id="rect4969"
           width="67.054207"
           height="55.331444"
           x="2501.4417"
           y="1530.0864" /></flowRegion><flowPara
         id="flowPara4971" /></flowRoot>    <flowRoot
       xml:space="preserve"
       id="flowRoot5047"
       style="font-style:normal;font-weight:normal;font-size:13.26279259px;line-height:125%;font-family:sans-serif;letter-spacing:0px;word-spacing:0px;fill:#000000;fill-opacity:1;stroke:none;stroke-width:1px;stroke-linecap:butt;stroke-linejoin:miter;stroke-opacity:1"
       inkscape:export-filename="P:\STORAGE\Google Drive\[JDem]\fiole.png"
       inkscape:export-xdpi="9"
       inkscape:export-ydpi="9"><flowRegion
         id="flowRegion5049"><rect
           id="rect5051"
           width="1288.5662"
           height="637.71832"
           x="2227.6904"
           y="1776.7535" /></flowRegion><flowPara
         id="flowPara5053" /></flowRoot>    <g
       transform="matrix(1.9112591,0,0,1.9112591,-3223.3949,-1551.5615)"
       id="g4170">
      <path
         inkscape:export-ydpi="9"
         inkscape:export-xdpi="9"
         inkscape:export-filename="P:\STORAGE\Google Drive\[JDem]\fiole.png"
         sodipodi:nodetypes="ccssssssssssccc"
         inkscape:connector-curvature="0"
         id="rect4341-0"
         d="m 2403.2701,-14.16015 -58.2505,316.75035 c -25.4676,-0.91468 -51.3197,-0.33244 -77.4639,1.80799 -48.775,3.99296 -150.8249,33.13463 -197.3003,56.34185 -53.7292,26.82948 -117.9572,73.93407 -159.9299,117.28737 -186.5447,192.68039 -212.4315,489.2641 -62.1009,711.50359 71.2986,105.4037 162.933,176.542 288.0949,223.6618 40.991,15.432 167.0715,35.9231 209.6869,34.0795 228.2369,-9.873 425.079,-130.7797 512.8859,-334.4389 20.2712,-47.0173 32.7278,-91.6196 40.1213,-134.08732 11.6544,-66.94029 10.6216,-100.27954 10.1446,-140.57297 -1.2671,-106.98542 -48.8131,-215.94135 -111.7263,-300.38614 -71.4516,-95.90489 -166.4877,-164.8653 -275.1993,-202.52711 l 58.2647,-316.827843 z"
         style="opacity:1;fill:#ff6100;fill-opacity:1;stroke:none;stroke-opacity:0.4" />
      <path
         inkscape:export-ydpi="9"
         inkscape:export-xdpi="9"
         inkscape:export-filename="P:\STORAGE\Google Drive\[JDem]\fiole.png"
         sodipodi:nodetypes="ssscsccscssss"
         inkscape:connector-curvature="0"
         id="path3458-5"
         d="m 2198.8329,1334.7721 c -122.8523,-35.9537 -227.7292,-121.0955 -288.0117,-233.8159 -45.2448,-84.6014 -63.7662,-179.72345 -53.9154,-276.89834 3.5863,-35.37789 14.7269,-85.7205 19.9968,-90.36216 2.6502,-2.33447 44.9655,3.84809 277.0117,40.47227 150.636,23.77501 274.6365,42.93388 275.5568,42.57527 l 197.6658,31.33661 c 1.176,0.62718 42.6658,7.61103 92.1994,15.51945 49.5339,7.90844 90.4836,14.99132 90.9992,15.73966 5.8385,8.46943 -12.7151,119.31427 -25.9417,154.98754 -28.7518,77.5439 -70.5978,140.5391 -129.0947,194.3404 -20.7781,19.1101 -62.6219,49.3197 -88.5893,63.9575 -109.5808,61.7714 -247.019,77.518 -367.8769,42.1477 z"
         style="fill:#ffffff;fill-opacity:1" />
      <rect
         transform="matrix(0.98350748,0.18086748,-0.18086748,0.98350748,0,0)"
         inkscape:export-ydpi="9"
         inkscape:export-xdpi="9"
         inkscape:export-filename="P:\STORAGE\Google Drive\[JDem]\fiole.png"
         y="-556.8642"
         x="2304.135"
         height="176.00693"
         width="299.38702"
         id="rect4922-2"
         style="opacity:1;fill:#f05b00;fill-opacity:1;stroke:none;stroke-opacity:0.4" />
      <path
         transform="matrix(0.96494151,0.17745319,-0.17745319,0.96494151,268.98963,-403.24937)"
         inkscape:export-ydpi="9"
         inkscape:export-xdpi="9"
         inkscape:export-filename="P:\STORAGE\Google Drive\[JDem]\fiole.png"
         inkscape:transform-center-y="7.8307292"
         inkscape:transform-center-x="2.6029504"
         d="m 2172.9595,1061.2016 -71.0262,18.0055 -25.4333,68.7173 -39.0726,-61.9859 -73.2134,-2.9537 46.878,-56.315 -19.815,-70.54276 68.0448,27.18137 60.967,-40.64414 -4.824,73.11393 z"
         inkscape:randomized="0"
         inkscape:rounded="0"
         inkscape:flatsided="false"
         sodipodi:arg2="0.83850112"
         sodipodi:arg1="0.21018259"
         sodipodi:r2="55.169968"
         sodipodi:r1="110.33992"
         sodipodi:cy="1038.1804"
         sodipodi:cx="2065.0479"
         sodipodi:sides="5"
         id="path4166"
         style="opacity:1;fill:#ff6100;fill-opacity:1;stroke:none"
         sodipodi:type="star" />
      <path
         transform="matrix(0.96494151,0.17745319,-0.17745319,0.96494151,268.98963,-403.24937)"
         inkscape:export-ydpi="9"
         inkscape:export-xdpi="9"
         inkscape:export-filename="P:\STORAGE\Google Drive\[JDem]\fiole.png"
         inkscape:transform-center-y="0.76630165"
         inkscape:transform-center-x="4.9649999"
         d="m 2360.0306,1259.4008 -40.3334,2.1625 -21.0841,34.4517 -14.5204,-37.691 -39.2809,-9.4061 31.3593,-25.4569 -3.1928,-40.2649 33.9016,21.9578 37.3076,-15.4791 -10.407,39.0276 z"
         inkscape:randomized="0"
         inkscape:rounded="0"
         inkscape:flatsided="false"
         sodipodi:arg2="1.0332103"
         sodipodi:arg1="0.40489179"
         sodipodi:r2="30.412142"
         sodipodi:r1="60.824287"
         sodipodi:cy="1235.4409"
         sodipodi:cx="2304.1243"
         sodipodi:sides="5"
         id="path4168"
         style="opacity:1;fill:#ff6100;fill-opacity:1;stroke:none"
         sodipodi:type="star" />
      <path
         transform="matrix(0.96494151,0.17745319,-0.17745319,0.96494151,268.98963,-403.24937)"
         inkscape:export-ydpi="9"
         inkscape:export-xdpi="9"
         inkscape:export-filename="P:\STORAGE\Google Drive\[JDem]\fiole.png"
         inkscape:transform-center-y="-6.8395005"
         inkscape:transform-center-x="-1.0018739"
         d="m 2564.7785,1116.6672 -52.0762,-18.5306 -44.7878,32.3938 1.5312,-55.2536 -44.6486,-32.5855 53.0225,-15.6181 17.1935,-52.53276 31.2385,45.60116 55.2747,0.1185 -33.716,43.8011 z"
         inkscape:randomized="0"
         inkscape:rounded="0"
         inkscape:flatsided="false"
         sodipodi:arg2="1.428641"
         sodipodi:arg1="0.80032243"
         sodipodi:r2="41.618523"
         sodipodi:r1="83.237045"
         sodipodi:cy="1056.9379"
         sodipodi:cx="2506.8059"
         sodipodi:sides="5"
         id="path4170"
         style="opacity:1;fill:#ff6100;fill-opacity:1;stroke:none"
         sodipodi:type="star" />
      <path
         transform="matrix(0.96494151,0.17745319,-0.17745319,0.96494151,268.98963,-403.24937)"
         inkscape:export-ydpi="9"
         inkscape:export-xdpi="9"
         inkscape:export-filename="P:\STORAGE\Google Drive\[JDem]\fiole.png"
         inkscape:transform-center-y="-6.9306556"
         inkscape:transform-center-x="6.8376824"
         d="m 2553.6842,948.61113 -95.3611,-14.0362 -65.6243,70.59877 -16.1189,-95.03113 -87.4225,-40.59621 85.3989,-44.69628 11.5943,-95.68866 68.8984,67.40735 94.5882,-18.54263 -42.8174,86.35632 z"
         inkscape:randomized="0"
         inkscape:rounded="0"
         inkscape:flatsided="false"
         sodipodi:arg2="1.2329171"
         sodipodi:arg1="0.60459859"
         sodipodi:r2="72.574547"
         sodipodi:r1="145.14909"
         sodipodi:cy="866.10376"
         sodipodi:cx="2434.2656"
         sodipodi:sides="5"
         id="path4194"
         style="opacity:1;fill:#ffffff;fill-opacity:1;stroke:none"
         sodipodi:type="star" />
      <path
         transform="matrix(0.96494151,0.17745319,-0.17745319,0.96494151,268.98963,-403.24937)"
         inkscape:export-ydpi="9"
         inkscape:export-xdpi="9"
         inkscape:export-filename="P:\STORAGE\Google Drive\[JDem]\fiole.png"
         inkscape:transform-center-y="5.8146284"
         inkscape:transform-center-x="-5.6501714"
         d="m 2155.86,768.30638 -57.3049,-56.19998 -78.7832,15.34581 35.7411,-71.86695 -38.9401,-70.18519 79.3942,11.78376 54.7169,-58.72264 13.3272,79.14972 72.757,33.89259 -71.1576,37.13346 z"
         inkscape:randomized="0"
         inkscape:rounded="0"
         inkscape:flatsided="false"
         sodipodi:arg2="1.86244"
         sodipodi:arg1="1.2341215"
         sodipodi:r2="60.433689"
         sodipodi:r1="120.8674"
         sodipodi:cy="654.22467"
         sodipodi:cx="2115.9314"
         sodipodi:sides="5"
         id="path4196"
         style="opacity:1;fill:#ffffff;fill-opacity:1;stroke:none"
         sodipodi:type="star" />
      <path
         transform="matrix(0.96494151,0.17745319,-0.17745319,0.96494151,268.98963,-403.24937)"
         inkscape:export-ydpi="9"
         inkscape:export-xdpi="9"
         inkscape:export-filename="P:\STORAGE\Google Drive\[JDem]\fiole.png"
         inkscape:transform-center-y="-4.7053786"
         inkscape:transform-center-x="3.6272332"
         d="m 2420.6944,537.7804 -57.5467,-9.61576 -40.5453,41.95427 -8.6378,-57.70158 -52.4301,-25.5963 52.2083,-26.04578 8.1417,-57.77364 40.9043,41.60439 57.4619,-10.10977 -26.928,51.75871 z"
         inkscape:randomized="0"
         inkscape:rounded="0"
         inkscape:flatsided="false"
         sodipodi:arg2="1.2523416"
         sodipodi:arg1="0.62402305"
         sodipodi:r2="43.929783"
         sodipodi:r1="87.859573"
         sodipodi:cy="486.44363"
         sodipodi:cx="2349.3933"
         sodipodi:sides="5"
         id="path4198"
         style="opacity:1;fill:#ffffff;fill-opacity:1;stroke:none"
         sodipodi:type="star" />
    </g>
  </g>
</svg>
