<?xml version="1.0" encoding="UTF-8" standalone="no"?>
<!-- Created with Inkscape (http://www.inkscape.org/) -->

<svg
   xmlns:dc="http://purl.org/dc/elements/1.1/"
   xmlns:cc="http://creativecommons.org/ns#"
   xmlns:rdf="http://www.w3.org/1999/02/22-rdf-syntax-ns#"
   xmlns:svg="http://www.w3.org/2000/svg"
   xmlns="http://www.w3.org/2000/svg"
   xmlns:sodipodi="http://sodipodi.sourceforge.net/DTD/sodipodi-0.dtd"
   xmlns:inkscape="http://www.inkscape.org/namespaces/inkscape"
   width="1577.4677mm"
   height="1577.4677mm"
   viewBox="0 0 5589.4524 5589.4521"
   id="svg4322"
   version="1.1"
   inkscape:version="0.91 r13725"
   sodipodi:docname="logo-carre.svg"
   inkscape:export-filename="P:\STORAGE\Google Drive\[JDem]\monochrome-carre-LND-fiole-carre-inverse.png"
   inkscape:export-xdpi="9.6610546"
   inkscape:export-ydpi="9.6610546">
  <defs
     id="defs4324" />
  <sodipodi:namedview
     id="base"
     pagecolor="#ffffff"
     bordercolor="#666666"
     borderopacity="1.0"
     inkscape:pageopacity="0"
     inkscape:pageshadow="2"
     inkscape:zoom="0.088388348"
     inkscape:cx="2534.4122"
     inkscape:cy="2019.7884"
     inkscape:document-units="px"
     inkscape:current-layer="layer1"
     showgrid="false"
     fit-margin-top="100"
     fit-margin-left="100"
     fit-margin-right="100"
     fit-margin-bottom="100"
     inkscape:window-width="1600"
     inkscape:window-height="847"
     inkscape:window-x="1592"
     inkscape:window-y="-8"
     inkscape:window-maximized="1" />
  <metadata
     id="metadata4327">
    <rdf:RDF>
      <cc:Work
         rdf:about="">
        <dc:format>image/svg+xml</dc:format>
        <dc:type
           rdf:resource="http://purl.org/dc/dcmitype/StillImage" />
        <dc:title></dc:title>
      </cc:Work>
    </rdf:RDF>
  </metadata>
  <g
     inkscape:label="Calque 1"
     inkscape:groupmode="layer"
     id="layer1"
     transform="translate(2030.5317,2201.0896)">
    <text
       xml:space="preserve"
       style="font-style:normal;font-variant:normal;font-weight:normal;font-stretch:normal;font-size:812.59448242px;line-height:125%;font-family:Breamcatcher;-inkscape-font-specification:Breamcatcher;letter-spacing:0px;word-spacing:0px;fill:#ff6100;fill-opacity:1;stroke:none;stroke-width:1px;stroke-linecap:butt;stroke-linejoin:miter;stroke-opacity:1"
       x="-1049.5165"
       y="2990.543"
       id="text4939"
       sodipodi:linespacing="125%"
       transform="scale(1.3732046,0.72822361)"><tspan
         sodipodi:role="line"
         id="tspan4941"
         x="-1049.5165"
         y="2990.543">Les nouveaux </tspan></text>
    <text
       xml:space="preserve"
       style="font-style:normal;font-weight:normal;font-size:40px;line-height:125%;font-family:sans-serif;letter-spacing:0px;word-spacing:0px;fill:#000000;fill-opacity:1;stroke:none;stroke-width:1px;stroke-linecap:butt;stroke-linejoin:miter;stroke-opacity:1"
       x="324"
       y="1520.3622"
       id="text4943"
       sodipodi:linespacing="125%"><tspan
         sodipodi:role="line"
         id="tspan4945"
         x="324"
         y="1520.3622" /></text>
    <flowRoot
       xml:space="preserve"
       id="flowRoot4965"
       style="font-style:normal;font-weight:normal;font-size:40px;line-height:125%;font-family:sans-serif;letter-spacing:0px;word-spacing:0px;fill:#000000;fill-opacity:1;stroke:none;stroke-width:1px;stroke-linecap:butt;stroke-linejoin:miter;stroke-opacity:1"
       transform="translate(312,0)"><flowRegion
         id="flowRegion4967"><rect
           id="rect4969"
           width="202.23254"
           height="166.8772"
           x="147.07822"
           y="1383.2882" /></flowRegion><flowPara
         id="flowPara4971" /></flowRoot>    <text
       xml:space="preserve"
       style="font-style:normal;font-variant:normal;font-weight:normal;font-stretch:normal;font-size:1087.5px;line-height:125%;font-family:Breamcatcher;-inkscape-font-specification:Breamcatcher;letter-spacing:0px;word-spacing:0px;fill:#ff6100;fill-opacity:1;stroke:none;stroke-width:1px;stroke-linecap:butt;stroke-linejoin:miter;stroke-opacity:1"
       x="-1184.2822"
       y="3712.324"
       id="text4939-5-6"
       sodipodi:linespacing="125%"
       transform="scale(1.2275041,0.81466123)"><tspan
         sodipodi:role="line"
         id="tspan4941-3-9"
         x="-1184.2822"
         y="3712.324"
         style="font-size:1087.5px;fill:#ff6100;fill-opacity:1">DemOCRATES</tspan></text>
    <path
       style="opacity:1;fill:#ff6100;fill-opacity:1;stroke:none;stroke-opacity:0.4"
       d="m 615.17107,-1627.8918 0,651.08135 c -50.97007,7.49333 -102.1581,18.10363 -153.35743,31.91865 -95.51717,25.77331 -287.76338,121.02819 -371.683089,184.16367 -97.0180008,72.98971 -207.496491,190.13039 -275.097391,291.67486 -300.44747,451.3074 -243.4736,1050.45867 136.68319,1437.36167 180.30012,183.4999 388.5043,291.4361 654.58763,339.3584 87.14341,15.6947 345.31695,10.3358 429.37322,-8.9114 450.1846,-103.0833 797.3492,-415.4511 897.4661,-852.4849 23.1131,-100.8947 31.5714,-194.1301 30.7439,-281.2703 -1.3046,-137.35608 -15.5479,-203.26577 -31.2295,-283.20527 -41.6377,-212.25132 -176.0102,-411.49932 -331.975,-556.39392 -177.1311,-164.55831 -391.3024,-266.92034 -621.22057,-302.05228 l 0,-651.24053 z"
       id="rect4341-0"
       inkscape:connector-curvature="0"
       sodipodi:nodetypes="ccssssssssssccc" />
    <rect
       style="opacity:1;fill:#f05b00;fill-opacity:1;stroke:none;stroke-opacity:0.4"
       id="rect4922-2"
       width="605.24146"
       height="355.81598"
       x="500.0647"
       y="-1846.7589" />
    <path
       style="fill:#ffffff;fill-opacity:1"
       d="M 701.92334,1128.8883 C 444.51446,1102.3228 204.86057,971.3861 43.787791,769.3105 -77.1043,617.6443 -148.71029,435.2889 -164.6556,238.4783 c -5.80528,-71.6517 -2.06246,-175.8198 6.71826,-186.97547 4.41614,-5.61038 90.81027,-8.79022 565.57032,-20.8177 C 715.82969,22.87708 969.38044,15.6302 971.07888,14.58065 L 1375.5479,4.61111 c 2.5676,0.81712 87.6137,-0.46757 188.9913,-2.85516 101.3776,-2.38759 185.386,-3.27796 186.6851,-1.97881 14.705,14.70493 18.3456,241.87736 5.0909,317.64126 -28.8126,164.6903 -88.9794,305.2421 -185.6148,433.6017 -34.3248,45.593 -106.4757,120.9577 -152.7529,159.5561 -195.289,162.8852 -462.79447,244.4463 -716.02416,218.3121 z"
       id="path3458-5"
       inkscape:connector-curvature="0"
       sodipodi:nodetypes="ssscsccscssss" />
    <flowRoot
       xml:space="preserve"
       id="flowRoot5047"
       style="font-style:normal;font-weight:normal;font-size:40px;line-height:125%;font-family:sans-serif;letter-spacing:0px;word-spacing:0px;fill:#000000;fill-opacity:1;stroke:none;stroke-width:1px;stroke-linecap:butt;stroke-linejoin:miter;stroke-opacity:1"
       transform="translate(-1718.5317,1341.1767)"><flowRegion
         id="flowRegion5049"><rect
           id="rect5051"
           width="3886.2588"
           height="1923.3304"
           x="1351.9882"
           y="786.04858" /></flowRegion><flowPara
         id="flowPara5053" /></flowRoot>    <path
       sodipodi:type="star"
       style="opacity:1;fill:#ff6100;fill-opacity:1;stroke:none"
       id="path4166"
       sodipodi:sides="5"
       sodipodi:cx="325.2951"
       sodipodi:cy="438.04807"
       sodipodi:r1="218.85258"
       sodipodi:r2="109.4263"
       sodipodi:arg1="0.21018259"
       sodipodi:arg2="0.83850112"
       inkscape:flatsided="false"
       inkscape:rounded="0"
       inkscape:randomized="0"
       d="m 539.33137,483.70913 -140.87623,35.71291 -50.44545,136.29665 -77.49814,-122.94535 -145.21432,-5.8585 92.97974,-111.69731 -39.30193,-139.9174 134.96277,53.91261 120.92439,-80.61521 -9.56815,145.01714 z"
       inkscape:transform-center-x="-7.0191987"
       inkscape:transform-center-y="14.110051" />
    <path
       sodipodi:type="star"
       style="opacity:1;fill:#ff6100;fill-opacity:1;stroke:none"
       id="path4168"
       sodipodi:sides="5"
       sodipodi:cx="799.48907"
       sodipodi:cy="829.30267"
       sodipodi:r1="120.64131"
       sodipodi:r2="60.320652"
       sodipodi:arg1="0.40489179"
       sodipodi:arg2="1.0332103"
       inkscape:flatsided="false"
       inkscape:rounded="0"
       inkscape:randomized="0"
       d="m 910.37594,876.82561 -79.99883,4.28932 -41.81911,68.33281 -28.80039,-74.75793 -77.91117,-18.65634 62.19921,-50.49226 -6.33265,-79.86307 67.24161,43.552 73.99739,-30.70174 -20.64161,77.40888 z"
       inkscape:transform-center-x="3.3778711"
       inkscape:transform-center-y="8.2602791" />
    <path
       sodipodi:type="star"
       style="opacity:1;fill:#ff6100;fill-opacity:1;stroke:none"
       id="path4170"
       sodipodi:sides="5"
       sodipodi:cx="1201.4962"
       sodipodi:cy="475.2532"
       sodipodi:r1="165.09567"
       sodipodi:r2="82.547836"
       sodipodi:arg1="0.80032243"
       sodipodi:arg2="1.428641"
       inkscape:flatsided="false"
       inkscape:rounded="0"
       inkscape:randomized="0"
       d="m 1316.4813,593.72267 -103.29,-36.75429 -88.8339,64.2512 3.0371,-109.59227 -88.5578,-64.63139 105.167,-30.97745 34.1022,-104.19561 61.9597,90.44716 109.6341,0.23496 -66.8737,86.87687 z"
       inkscape:transform-center-x="7.2280059"
       inkscape:transform-center-y="-8.732002" />
    <path
       sodipodi:type="star"
       style="opacity:1;fill:#ffffff;fill-opacity:1;stroke:none"
       id="path4194"
       sodipodi:sides="5"
       sodipodi:cx="1057.6166"
       sodipodi:cy="96.745041"
       sodipodi:r1="287.89447"
       sodipodi:r2="143.94724"
       sodipodi:arg1="0.60459859"
       sodipodi:arg2="1.2329171"
       inkscape:flatsided="false"
       inkscape:rounded="0"
       inkscape:randomized="0"
       d="M 1294.4761,260.39343 1105.3332,232.55347 975.17132,372.58196 943.20034,184.09337 769.80309,103.57324 939.18682,14.920847 l 22.9965,-189.792667 136.65588,133.6984 187.6099,-36.77819 -84.9258,171.282548 z"
       inkscape:transform-center-x="25.476987"
       inkscape:transform-center-y="2.1100394" />
    <path
       sodipodi:type="star"
       style="opacity:1;fill:#ffffff;fill-opacity:1;stroke:none"
       id="path4196"
       sodipodi:sides="5"
       sodipodi:cx="426.22012"
       sodipodi:cy="-323.5043"
       sodipodi:r1="239.73318"
       sodipodi:r2="119.86659"
       sodipodi:arg1="1.2341215"
       sodipodi:arg2="1.86244"
       inkscape:flatsided="false"
       inkscape:rounded="0"
       inkscape:randomized="0"
       d="M 505.41608,-97.230134 391.75526,-208.69937 235.4935,-178.2619 l 70.89041,-142.54376 -77.23528,-139.20807 157.47351,23.37234 108.52772,-116.47278 26.43357,156.98866 144.30911,67.22394 -141.13667,73.65198 z"
       inkscape:transform-center-x="-21.300462"
       inkscape:transform-center-y="-1.667848" />
    <path
       sodipodi:type="star"
       style="opacity:1;fill:#ffffff;fill-opacity:1;stroke:none"
       id="path4198"
       sodipodi:sides="5"
       sodipodi:cx="889.27802"
       sodipodi:cy="-656.28815"
       sodipodi:r1="174.26418"
       sodipodi:r2="87.132088"
       sodipodi:arg1="0.62402305"
       sodipodi:arg2="1.2523416"
       inkscape:flatsided="false"
       inkscape:rounded="0"
       inkscape:randomized="0"
       d="m 1030.6994,-554.46477 -114.14038,-19.07226 -80.41919,83.21375 -17.13251,-114.44759 -103.99187,-50.76873 103.55188,-51.66024 16.14868,-114.59054 81.1311,82.5198 113.97229,-20.05212 -53.4101,102.66028 z"
       inkscape:transform-center-x="16.420602"
       inkscape:transform-center-y="0.2313133" />
  </g>
</svg>
