<?xml version="1.0" encoding="UTF-8" standalone="no"?>
<!-- Created with Inkscape (http://www.inkscape.org/) -->

<svg
   xmlns:dc="http://purl.org/dc/elements/1.1/"
   xmlns:cc="http://creativecommons.org/ns#"
   xmlns:rdf="http://www.w3.org/1999/02/22-rdf-syntax-ns#"
   xmlns:svg="http://www.w3.org/2000/svg"
   xmlns="http://www.w3.org/2000/svg"
   xmlns:sodipodi="http://sodipodi.sourceforge.net/DTD/sodipodi-0.dtd"
   xmlns:inkscape="http://www.inkscape.org/namespaces/inkscape"
   width="1417.6532mm"
   height="576.26117mm"
   viewBox="0 0 5023.1807 2041.8702"
   id="svg4322"
   version="1.1"
   inkscape:version="0.91 r13725"
   sodipodi:docname="logo-rectangle-inverse.svg">
  <defs
     id="defs4324" />
  <sodipodi:namedview
     id="base"
     pagecolor="#ff6100"
     bordercolor="#666666"
     borderopacity="1.0"
     inkscape:pageopacity="1"
     inkscape:pageshadow="2"
     inkscape:zoom="0.125"
     inkscape:cx="1953.4975"
     inkscape:cy="404.70533"
     inkscape:document-units="px"
     inkscape:current-layer="layer1"
     showgrid="false"
     fit-margin-top="100"
     fit-margin-left="100"
     fit-margin-right="100"
     fit-margin-bottom="100"
     inkscape:window-width="1600"
     inkscape:window-height="847"
     inkscape:window-x="1592"
     inkscape:window-y="-8"
     inkscape:window-maximized="1" />
  <metadata
     id="metadata4327">
    <rdf:RDF>
      <cc:Work
         rdf:about="">
        <dc:format>image/svg+xml</dc:format>
        <dc:type
           rdf:resource="http://purl.org/dc/dcmitype/StillImage" />
        <dc:title></dc:title>
      </cc:Work>
    </rdf:RDF>
  </metadata>
  <g
     inkscape:label="Calque 1"
     inkscape:groupmode="layer"
     id="layer1"
     transform="translate(2030.5317,-1341.1767)">
    <text
       xml:space="preserve"
       style="font-style:normal;font-variant:normal;font-weight:normal;font-stretch:normal;font-size:812.59448242px;line-height:125%;font-family:Breamcatcher;-inkscape-font-specification:Breamcatcher;letter-spacing:0px;word-spacing:0px;fill:#ffffff;fill-opacity:1;stroke:none;stroke-width:1px;stroke-linecap:butt;stroke-linejoin:miter;stroke-opacity:1;"
       x="-1276.7181"
       y="2990.543"
       id="text4939"
       sodipodi:linespacing="125%"
       transform="scale(1.3732046,0.72822362)"><tspan
         sodipodi:role="line"
         id="tspan4941"
         x="-1276.7181"
         y="2990.543">Les nouveaux </tspan></text>
    <text
       xml:space="preserve"
       style="font-style:normal;font-weight:normal;font-size:40px;line-height:125%;font-family:sans-serif;letter-spacing:0px;word-spacing:0px;fill:#000000;fill-opacity:1;stroke:none;stroke-width:1px;stroke-linecap:butt;stroke-linejoin:miter;stroke-opacity:1"
       x="12"
       y="1520.3622"
       id="text4943"
       sodipodi:linespacing="125%"><tspan
         sodipodi:role="line"
         id="tspan4945"
         x="12"
         y="1520.3622" /></text>
    <flowRoot
       xml:space="preserve"
       id="flowRoot4965"
       style="font-style:normal;font-weight:normal;font-size:40px;line-height:125%;font-family:sans-serif;letter-spacing:0px;word-spacing:0px;fill:#000000;fill-opacity:1;stroke:none;stroke-width:1px;stroke-linecap:butt;stroke-linejoin:miter;stroke-opacity:1"><flowRegion
         id="flowRegion4967"><rect
           id="rect4969"
           width="202.23254"
           height="166.8772"
           x="147.07822"
           y="1383.2882" /></flowRegion><flowPara
         id="flowPara4971" /></flowRoot>    <text
       xml:space="preserve"
       style="font-style:normal;font-variant:normal;font-weight:normal;font-stretch:normal;font-size:1087.5px;line-height:125%;font-family:Breamcatcher;-inkscape-font-specification:Breamcatcher;letter-spacing:0px;word-spacing:0px;fill:#ffffff;fill-opacity:1;stroke:none;stroke-width:1px;stroke-linecap:butt;stroke-linejoin:miter;stroke-opacity:1;"
       x="-1438.4487"
       y="3712.324"
       id="text4939-5-6"
       sodipodi:linespacing="125%"
       transform="scale(1.2275041,0.81466123)"><tspan
         sodipodi:role="line"
         id="tspan4941-3-9"
         x="-1438.4487"
         y="3712.324"
         style="font-size:1087.5px;fill:#ffffff;fill-opacity:1;">Dem</tspan></text>
    <text
       xml:space="preserve"
       style="font-style:normal;font-variant:normal;font-weight:normal;font-stretch:normal;font-size:1087.5px;line-height:125%;font-family:Breamcatcher;-inkscape-font-specification:Breamcatcher;letter-spacing:0px;word-spacing:0px;fill:#ffffff;fill-opacity:1;stroke:none;stroke-width:1px;stroke-linecap:butt;stroke-linejoin:miter;stroke-opacity:1;"
       x="150.90225"
       y="3700.8567"
       id="text4939-5-6-2"
       sodipodi:linespacing="125%"
       transform="scale(1.2275041,0.81466123)"><tspan
         sodipodi:role="line"
         id="tspan4941-3-9-5"
         x="150.90225"
         y="3700.8567"
         style="font-size:1087.5px;fill:#ffffff;fill-opacity:1;">CRATES</tspan></text>
    <path
       style="opacity:1;fill:#ffffff;fill-opacity:1;stroke:none;stroke-opacity:0.4"
       d="m -104.90789,2419.495 0,132.4191 c -10.36646,1.524 -20.77727,3.6821 -31.19035,6.4917 -19.42663,5.2419 -58.52632,24.6153 -75.59421,37.4558 -19.73186,14.845 -42.20137,38.6695 -55.95028,59.3219 -61.10606,91.7886 -49.51849,213.646 27.79912,292.3357 36.67007,37.3209 79.01535,59.2732 133.13229,69.0198 17.723528,3.1922 70.23177,2.1021 87.327433,-1.8124 91.560103,-20.9654 162.167657,-84.4959 182.529757,-173.3812 4.70084,-20.5204 6.42112,-39.483 6.25282,-57.2058 -0.26534,-27.9361 -3.16219,-41.341 -6.35156,-57.5994 -8.46842,-43.1683 -35.79758,-83.6922 -67.518235,-113.1613 -36.025544,-33.4684 -79.584461,-54.2871 -126.345996,-61.4324 l 0,-132.4515 z"
       id="rect4341-0"
       inkscape:connector-curvature="0"
       sodipodi:nodetypes="ccssssssssssccc" />
    <rect
       style="opacity:1;fill:#f2f2f2;fill-opacity:1;stroke:none;stroke-opacity:0.4"
       id="rect4922-2"
       width="123.09611"
       height="72.367088"
       x="-128.3186"
       y="2374.9812" />
    <path
       style="fill:#ff6100;fill-opacity:1"
       d="m -87.263902,2980.1785 c -52.352728,-5.4031 -101.094358,-32.0333 -133.853918,-73.1322 -24.58745,-30.8464 -39.1509,-67.9345 -42.39393,-107.9625 -1.18068,-14.5728 -0.41946,-35.7588 1.36638,-38.0278 0.89816,-1.1409 18.46932,-1.7877 115.02766,-4.2338 62.682109,-1.5881 114.250154,-3.0621 114.595588,-3.2755 l 82.262317,-2.0276 c 0.522207,0.1662 17.819178,-0.095 38.437704,-0.5807 20.618531,-0.4857 37.704451,-0.6666 37.968661,-0.4024 2.99075,2.9907 3.73119,49.1938 1.03541,64.6029 -5.86001,33.4952 -18.09694,62.0811 -37.750984,88.1874 -6.981093,9.2729 -21.655401,24.6008 -31.067415,32.4512 -39.718548,33.1281 -94.124735,49.7162 -145.627473,44.401 z"
       id="path3458-5"
       inkscape:connector-curvature="0"
       sodipodi:nodetypes="ssscsccscssss" />
    <path
       sodipodi:type="star"
       style="opacity:1;fill:#ffffff;fill-opacity:1;stroke:none"
       id="path4166"
       sodipodi:sides="5"
       sodipodi:cx="-163.86388"
       sodipodi:cy="2839.6729"
       sodipodi:r1="44.511002"
       sodipodi:r2="22.255501"
       sodipodi:arg1="0.21018259"
       sodipodi:arg2="0.83850112"
       inkscape:flatsided="false"
       inkscape:rounded="0"
       inkscape:randomized="0"
       d="m -120.33244,2848.9596 -28.65189,7.2634 -10.25978,27.7205 -15.76184,-25.0051 -29.53419,-1.1915 18.91054,-22.7174 -7.99336,-28.4569 27.4492,10.9649 24.59402,-16.3958 -1.946,29.4941 z"
       inkscape:transform-center-x="-1.427594"
       inkscape:transform-center-y="2.8697057" />
    <path
       sodipodi:type="star"
       style="opacity:1;fill:#ffffff;fill-opacity:1;stroke:none"
       id="path4168"
       sodipodi:sides="5"
       sodipodi:cx="-67.420647"
       sodipodi:cy="2919.2476"
       sodipodi:r1="24.536451"
       sodipodi:r2="12.268224"
       sodipodi:arg1="0.40489179"
       sodipodi:arg2="1.0332103"
       inkscape:flatsided="false"
       inkscape:rounded="0"
       inkscape:randomized="0"
       d="m -44.868089,2928.9129 -16.270442,0.8724 -8.505317,13.8978 -5.857521,-15.2045 -15.845849,-3.7944 12.650294,-10.2693 -1.287956,-16.2429 13.675833,8.8578 15.049848,-6.2442 -4.198164,15.7437 z"
       inkscape:transform-center-x="0.68699901"
       inkscape:transform-center-y="1.6797571" />
    <path
       sodipodi:type="star"
       style="opacity:1;fill:#ffffff;fill-opacity:1;stroke:none"
       id="path4170"
       sodipodi:sides="5"
       sodipodi:cx="14.340943"
       sodipodi:cy="2847.2397"
       sodipodi:r1="33.577728"
       sodipodi:r2="16.788864"
       sodipodi:arg1="0.80032243"
       sodipodi:arg2="1.428641"
       inkscape:flatsided="false"
       inkscape:rounded="0"
       inkscape:randomized="0"
       d="m 37.727004,2871.3345 -21.007464,-7.4752 -18.0673559,13.0676 0.61768906,-22.2893 -18.01117716,-13.1449 21.3892173,-6.3003 6.935836,-21.1917 12.6015747,18.3955 22.297759,0.048 -13.601016,17.6693 z"
       inkscape:transform-center-x="1.4700441"
       inkscape:transform-center-y="-1.7760435" />
    <path
       sodipodi:type="star"
       style="opacity:1;fill:#ff6100;fill-opacity:1;stroke:none"
       id="path4194"
       sodipodi:sides="5"
       sodipodi:cx="-14.921819"
       sodipodi:cy="2770.2576"
       sodipodi:r1="58.552979"
       sodipodi:r2="29.276489"
       sodipodi:arg1="0.60459859"
       sodipodi:arg2="1.2329171"
       inkscape:flatsided="false"
       inkscape:rounded="0"
       inkscape:randomized="0"
       d="m 33.251493,2803.5409 -38.4685369,-5.6621 -26.4727771,28.4794 -6.502371,-38.3354 -35.266134,-16.3765 34.449851,-18.0304 4.677108,-38.6007 27.7935489,27.192 38.1567461,-7.48 -17.272493,34.836 z"
       inkscape:transform-center-x="5.1816179"
       inkscape:transform-center-y="0.42928488" />
    <path
       sodipodi:type="star"
       style="opacity:1;fill:#ff6100;fill-opacity:1;stroke:none"
       id="path4196"
       sodipodi:sides="5"
       sodipodi:cx="-143.33737"
       sodipodi:cy="2684.7859"
       sodipodi:r1="48.757771"
       sodipodi:r2="24.378885"
       sodipodi:arg1="1.2341215"
       sodipodi:arg2="1.86244"
       inkscape:flatsided="false"
       inkscape:rounded="0"
       inkscape:randomized="0"
       d="m -127.23022,2730.8063 -23.11674,-22.671 -31.78106,6.1905 14.41794,-28.9911 -15.70838,-28.3126 32.02751,4.7536 22.07275,-23.6887 5.37615,31.9289 29.35009,13.6723 -28.70487,14.9796 z"
       inkscape:transform-center-x="-4.3321843"
       inkscape:transform-center-y="-0.33902259" />
    <path
       sodipodi:type="star"
       style="opacity:1;fill:#ff6100;fill-opacity:1;stroke:none"
       id="path4198"
       sodipodi:sides="5"
       sodipodi:cx="-49.159088"
       sodipodi:cy="2617.103"
       sodipodi:r1="35.442451"
       sodipodi:r2="17.72123"
       sodipodi:arg1="0.62402305"
       sodipodi:arg2="1.2523416"
       inkscape:flatsided="false"
       inkscape:rounded="0"
       inkscape:randomized="0"
       d="m -20.396322,2637.8122 -23.214261,-3.879 -16.355933,16.9243 -3.484473,-23.2767 -21.150224,-10.3255 21.060739,-10.5069 3.284376,-23.3058 16.500725,16.7832 23.18008,-4.0783 -10.862729,20.8794 z"
       inkscape:transform-center-x="3.3396984"
       inkscape:transform-center-y="0.046889139" />
  </g>
</svg>
